<mxfile host="app.diagrams.net" modified="2024-06-09T03:26:34.893Z" agent="Mozilla/5.0 (Windows NT 10.0; Win64; x64) AppleWebKit/537.36 (KHTML, like Gecko) Chrome/125.0.0.0 Safari/537.36" etag="425TPn99spnWaUGnkusz" version="24.5.2" type="github">
  <diagram name="Page-1" id="aIe0pC07M8232kSjxksx">
    <mxGraphModel dx="1313" dy="653" grid="1" gridSize="10" guides="1" tooltips="1" connect="1" arrows="1" fold="1" page="1" pageScale="1" pageWidth="850" pageHeight="1100" math="0" shadow="0">
      <root>
        <mxCell id="0" />
        <mxCell id="1" parent="0" />
        <mxCell id="kRcYPirVNwDAWQPLlU47-3" value="" style="edgeStyle=orthogonalEdgeStyle;rounded=0;orthogonalLoop=1;jettySize=auto;html=1;" edge="1" parent="1" source="kRcYPirVNwDAWQPLlU47-1" target="kRcYPirVNwDAWQPLlU47-2">
          <mxGeometry relative="1" as="geometry" />
        </mxCell>
        <mxCell id="kRcYPirVNwDAWQPLlU47-1" value="Start" style="strokeWidth=2;html=1;shape=mxgraph.flowchart.start_1;whiteSpace=wrap;" vertex="1" parent="1">
          <mxGeometry x="360" y="60" width="100" height="60" as="geometry" />
        </mxCell>
        <mxCell id="kRcYPirVNwDAWQPLlU47-6" value="" style="edgeStyle=orthogonalEdgeStyle;rounded=0;orthogonalLoop=1;jettySize=auto;html=1;" edge="1" parent="1" source="kRcYPirVNwDAWQPLlU47-2" target="kRcYPirVNwDAWQPLlU47-4">
          <mxGeometry relative="1" as="geometry" />
        </mxCell>
        <mxCell id="kRcYPirVNwDAWQPLlU47-2" value="&lt;div style=&quot;background-color:#1e1f22;color:#bcbec4&quot;&gt;&lt;pre style=&quot;font-family:&#39;JetBrains Mono&#39;,monospace;font-size:9.8pt;&quot;&gt;&lt;span style=&quot;color:#cf8e6d;&quot;&gt;int &lt;/span&gt;numRandom = (&lt;span style=&quot;color:#cf8e6d;&quot;&gt;int&lt;/span&gt;) (&lt;span style=&quot;color:#2aacb8;&quot;&gt;1 &lt;/span&gt;+ Math.&lt;span style=&quot;font-style:italic;&quot;&gt;random&lt;/span&gt;() * &lt;span style=&quot;color:#2aacb8;&quot;&gt;10&lt;/span&gt;);&lt;br&gt;Scanner input = &lt;span style=&quot;color:#cf8e6d;&quot;&gt;new &lt;/span&gt;Scanner(System.&lt;span style=&quot;color:#c77dbb;font-style:italic;&quot;&gt;in&lt;/span&gt;);&lt;/pre&gt;&lt;/div&gt;" style="whiteSpace=wrap;html=1;strokeWidth=2;" vertex="1" parent="1">
          <mxGeometry x="185" y="150" width="450" height="80" as="geometry" />
        </mxCell>
        <mxCell id="kRcYPirVNwDAWQPLlU47-8" value="" style="edgeStyle=orthogonalEdgeStyle;rounded=0;orthogonalLoop=1;jettySize=auto;html=1;" edge="1" parent="1" source="kRcYPirVNwDAWQPLlU47-4" target="kRcYPirVNwDAWQPLlU47-7">
          <mxGeometry relative="1" as="geometry" />
        </mxCell>
        <mxCell id="kRcYPirVNwDAWQPLlU47-4" value="guess" style="shape=manualInput;whiteSpace=wrap;html=1;" vertex="1" parent="1">
          <mxGeometry x="370" y="240" width="80" height="60" as="geometry" />
        </mxCell>
        <mxCell id="kRcYPirVNwDAWQPLlU47-10" value="" style="edgeStyle=orthogonalEdgeStyle;rounded=0;orthogonalLoop=1;jettySize=auto;html=1;" edge="1" parent="1" source="kRcYPirVNwDAWQPLlU47-7" target="kRcYPirVNwDAWQPLlU47-9">
          <mxGeometry relative="1" as="geometry" />
        </mxCell>
        <mxCell id="kRcYPirVNwDAWQPLlU47-7" value="&lt;div style=&quot;background-color:#1e1f22;color:#bcbec4&quot;&gt;&lt;pre style=&quot;font-family:&#39;JetBrains Mono&#39;,monospace;font-size:9.8pt;&quot;&gt;!(guess &amp;lt; &lt;span style=&quot;color:#2aacb8;&quot;&gt;1 &lt;/span&gt;|| guess &amp;gt; &lt;span style=&quot;color:#2aacb8;&quot;&gt;10&lt;/span&gt;)&lt;/pre&gt;&lt;/div&gt;" style="rhombus;whiteSpace=wrap;html=1;" vertex="1" parent="1">
          <mxGeometry x="275" y="320" width="270" height="110" as="geometry" />
        </mxCell>
        <mxCell id="kRcYPirVNwDAWQPLlU47-15" style="edgeStyle=orthogonalEdgeStyle;rounded=0;orthogonalLoop=1;jettySize=auto;html=1;exitX=0;exitY=0.5;exitDx=0;exitDy=0;" edge="1" parent="1" source="kRcYPirVNwDAWQPLlU47-9" target="kRcYPirVNwDAWQPLlU47-11">
          <mxGeometry relative="1" as="geometry" />
        </mxCell>
        <mxCell id="kRcYPirVNwDAWQPLlU47-9" value="&lt;div style=&quot;background-color:#1e1f22;color:#bcbec4&quot;&gt;&lt;pre style=&quot;font-family:&#39;JetBrains Mono&#39;,monospace;font-size:9.8pt;&quot;&gt;guess == numRandom&lt;/pre&gt;&lt;/div&gt;" style="rhombus;whiteSpace=wrap;html=1;" vertex="1" parent="1">
          <mxGeometry x="380" y="470" width="260" height="80" as="geometry" />
        </mxCell>
        <mxCell id="kRcYPirVNwDAWQPLlU47-17" value="" style="edgeStyle=orthogonalEdgeStyle;rounded=0;orthogonalLoop=1;jettySize=auto;html=1;" edge="1" parent="1" source="kRcYPirVNwDAWQPLlU47-11" target="kRcYPirVNwDAWQPLlU47-16">
          <mxGeometry relative="1" as="geometry" />
        </mxCell>
        <mxCell id="kRcYPirVNwDAWQPLlU47-11" value="&lt;div style=&quot;background-color:#1e1f22;color:#bcbec4&quot;&gt;&lt;pre style=&quot;font-family:&#39;JetBrains Mono&#39;,monospace;font-size:9.8pt;&quot;&gt;Math.&lt;span style=&quot;font-style:italic;&quot;&gt;abs&lt;/span&gt;(guess - numRandom) &amp;lt;= &lt;span style=&quot;color:#2aacb8;&quot;&gt;3&lt;/span&gt;&lt;/pre&gt;&lt;/div&gt;" style="rhombus;whiteSpace=wrap;html=1;" vertex="1" parent="1">
          <mxGeometry x="100" y="530" width="340" height="110" as="geometry" />
        </mxCell>
        <mxCell id="kRcYPirVNwDAWQPLlU47-13" value="&quot;Hurray! You win&quot;" style="shape=display;whiteSpace=wrap;html=1;" vertex="1" parent="1">
          <mxGeometry x="620" y="540" width="165" height="110" as="geometry" />
        </mxCell>
        <mxCell id="kRcYPirVNwDAWQPLlU47-14" style="edgeStyle=orthogonalEdgeStyle;rounded=0;orthogonalLoop=1;jettySize=auto;html=1;exitX=1;exitY=0.5;exitDx=0;exitDy=0;entryX=0;entryY=0;entryDx=110;entryDy=0;entryPerimeter=0;" edge="1" parent="1" source="kRcYPirVNwDAWQPLlU47-9" target="kRcYPirVNwDAWQPLlU47-13">
          <mxGeometry relative="1" as="geometry" />
        </mxCell>
        <mxCell id="kRcYPirVNwDAWQPLlU47-21" style="edgeStyle=orthogonalEdgeStyle;rounded=0;orthogonalLoop=1;jettySize=auto;html=1;exitX=0;exitY=0;exitDx=155.3125;exitDy=110;exitPerimeter=0;" edge="1" parent="1" source="kRcYPirVNwDAWQPLlU47-16" target="kRcYPirVNwDAWQPLlU47-20">
          <mxGeometry relative="1" as="geometry" />
        </mxCell>
        <mxCell id="kRcYPirVNwDAWQPLlU47-16" value="&quot;The number was &quot; + numRandom&lt;div&gt;&quot;You were close&quot;&lt;/div&gt;&lt;div&gt;&quot;Better luck next time&quot;&lt;/div&gt;" style="shape=display;whiteSpace=wrap;html=1;" vertex="1" parent="1">
          <mxGeometry x="342.5" y="700" width="292.5" height="110" as="geometry" />
        </mxCell>
        <mxCell id="kRcYPirVNwDAWQPLlU47-18" value="&quot;The Number was &quot; + numRandom&lt;div&gt;&quot;You missed it by the miles&quot;&lt;/div&gt;&lt;div&gt;&quot;Better luck next time.&quot;&lt;/div&gt;" style="shape=display;whiteSpace=wrap;html=1;" vertex="1" parent="1">
          <mxGeometry y="700" width="292.5" height="110" as="geometry" />
        </mxCell>
        <mxCell id="kRcYPirVNwDAWQPLlU47-19" style="edgeStyle=orthogonalEdgeStyle;rounded=0;orthogonalLoop=1;jettySize=auto;html=1;exitX=0;exitY=0.5;exitDx=0;exitDy=0;entryX=0;entryY=0;entryDx=155.3125;entryDy=0;entryPerimeter=0;" edge="1" parent="1" source="kRcYPirVNwDAWQPLlU47-11" target="kRcYPirVNwDAWQPLlU47-18">
          <mxGeometry relative="1" as="geometry" />
        </mxCell>
        <mxCell id="kRcYPirVNwDAWQPLlU47-20" value="End" style="strokeWidth=2;html=1;shape=mxgraph.flowchart.start_1;whiteSpace=wrap;" vertex="1" parent="1">
          <mxGeometry x="380" y="870" width="100" height="60" as="geometry" />
        </mxCell>
        <mxCell id="kRcYPirVNwDAWQPLlU47-22" style="edgeStyle=orthogonalEdgeStyle;rounded=0;orthogonalLoop=1;jettySize=auto;html=1;exitX=0;exitY=0;exitDx=155.3125;exitDy=110;exitPerimeter=0;entryX=0.25;entryY=0.033;entryDx=0;entryDy=0;entryPerimeter=0;" edge="1" parent="1" source="kRcYPirVNwDAWQPLlU47-18" target="kRcYPirVNwDAWQPLlU47-20">
          <mxGeometry relative="1" as="geometry" />
        </mxCell>
        <mxCell id="kRcYPirVNwDAWQPLlU47-23" style="edgeStyle=orthogonalEdgeStyle;rounded=0;orthogonalLoop=1;jettySize=auto;html=1;exitX=0;exitY=0;exitDx=75.625;exitDy=110;exitPerimeter=0;entryX=1;entryY=0.5;entryDx=0;entryDy=0;entryPerimeter=0;" edge="1" parent="1" source="kRcYPirVNwDAWQPLlU47-13" target="kRcYPirVNwDAWQPLlU47-20">
          <mxGeometry relative="1" as="geometry" />
        </mxCell>
      </root>
    </mxGraphModel>
  </diagram>
</mxfile>
